<svg xmlns="http://www.w3.org/2000/svg" xmlns:xlink="http://www.w3.org/1999/xlink" viewBox="0,0,256,256" width="50px" height="50px" fill-rule="nonzero"><g fill="#000000" fill-rule="nonzero" stroke="none" stroke-width="1" stroke-linecap="butt" stroke-linejoin="miter" stroke-miterlimit="10" stroke-dasharray="" stroke-dashoffset="0" font-family="none" font-weight="none" font-size="none" text-anchor="none" style="mix-blend-mode: normal"><g transform="scale(5.12,5.12)"><path d="M13,4c-4.95852,0 -9,4.04148 -9,9v24c0,4.95852 4.04148,9 9,9h24c4.95852,0 9,-4.04148 9,-9v-24c0,-4.95852 -4.04148,-9 -9,-9zM13,6h24c3.87748,0 7,3.12252 7,7v24c0,3.87748 -3.12252,7 -7,7h-24c-3.87748,0 -7,-3.12252 -7,-7v-24c0,-3.87748 3.12252,-7 7,-7zM37.60742,20.86133v6.72461h1.55078v-6.72461zM8.44141,21.24414v6.3418h3.04492c1.358,0 2.21484,-0.71612 2.21484,-1.82813c0,-0.809 -0.6397,-1.456 -1.4707,-1.5v-0.08203c0.672,-0.092 1.18164,-0.66861 1.18164,-1.34961c0,-0.984 -0.74767,-1.58203 -2.01367,-1.58203zM20.39844,21.24414v6.3418h1.61328v-2.21875h0.83594l1.08398,2.21875h1.81055l-1.26563,-2.45703c0.694,-0.303 1.08203,-1.01497 1.08203,-1.79297c0,-1.31 -0.88814,-2.0918 -2.36914,-2.0918zM10.05469,22.38281h0.91406c0.549,0 0.87109,0.27161 0.87109,0.72461c0,0.449 -0.34459,0.7207 -0.93359,0.7207h-0.85156zM22.01172,22.46094h0.94922c0.575,0 0.94922,0.34767 0.94922,0.88867c0,0.549 -0.35231,0.87891 -0.94531,0.87891h-0.95312zM16.9043,22.58008c-1.517,0 -2.43359,0.98075 -2.43359,2.59375c0,1.604 0.89703,2.52539 2.45703,2.52539c1.265,0 2.16103,-0.60069 2.33203,-1.55469h-1.41797c-0.105,0.286 -0.41809,0.45313 -0.87109,0.45313c-0.593,0 -0.9577,-0.3962 -0.9707,-1.0332v-0.08008h3.29102v-0.42969c0,-1.56 -0.87972,-2.47461 -2.38672,-2.47461zM28.72656,22.58008c-1.517,0 -2.43359,0.98075 -2.43359,2.59375c0,1.604 0.89508,2.52539 2.45508,2.52539c1.265,0 2.16298,-0.60069 2.33398,-1.55469h-1.41992c-0.105,0.286 -0.41614,0.45313 -0.86914,0.45313c-0.593,0 -0.95966,-0.3962 -0.97266,-1.0332v-0.08008h3.29297v-0.42969c0,-1.56 -0.87972,-2.47461 -2.38672,-2.47461zM34.26563,22.58008c-1.323,0 -2.18977,0.59006 -2.25977,1.53906h1.39648c0.101,-0.26 0.36444,-0.39648 0.77344,-0.39648c0.431,0 0.67773,0.19734 0.67773,0.52734v0.38281l-1.06836,0.06055c-1.262,0.074 -1.95703,0.59433 -1.95703,1.48633c0,0.896 0.64198,1.47947 1.58398,1.48047c0.619,0 1.155,-0.26269 1.375,-0.67969h0.08203v0.60547h1.51367v-3.33398c0,-1.055 -0.76819,-1.67187 -2.11719,-1.67187zM16.91211,23.68164c0.518,0 0.84509,0.33916 0.87109,0.91016h-1.77539c0.04,-0.553 0.3953,-0.90916 0.9043,-0.91016zM28.73438,23.68164c0.518,0 0.84509,0.33916 0.87109,0.91016h-1.77539c0.039,-0.553 0.3943,-0.90916 0.9043,-0.91016zM10.05273,24.80664h0.9668c0.668,0 1.04297,0.28959 1.04297,0.80859c0,0.537 -0.3652,0.83203 -1.0332,0.83203v-0.00195h-0.97656zM34.85156,25.50586v0.32031c0,0.422 -0.382,0.74805 -0.875,0.74805c-0.391,0 -0.65039,-0.19386 -0.65039,-0.50586c0,-0.295 0.24213,-0.47477 0.70313,-0.50977zM41.05469,26.05664c-0.553,0 -0.88281,0.34089 -0.88281,0.83789c0,0.492 0.32881,0.83594 0.88281,0.83594c0.558,0 0.88867,-0.34394 0.88867,-0.83594c0,-0.496 -0.33067,-0.83789 -0.88867,-0.83789z"></path></g></g></svg>