<?xml version="1.0" ?><svg enable-background="new 0 0 1080 1080" id="katman_1" version="1.1" viewBox="0 0 1080 1080" xml:space="preserve" xmlns="http://www.w3.org/2000/svg" xmlns:xlink="http://www.w3.org/1999/xlink"><g><path d="M189.9,892c-24.5-24-45.8-50.6-64.4-79.2c-35.4-54.3-59.3-113.2-71.6-176.9c-7.5-38.8-10.5-77.9-8.5-117.2   c4.9-99.8,36.4-190.7,95.9-271.1c70.1-94.7,162.6-157,276.5-187.3c26-6.9,52.5-11.1,79.4-13.5c27.5-2.5,54.9-2.8,82.3-0.6   c67.7,5.2,131.7,23.4,191.9,54.9c44.9,23.5,85.2,53.2,121,88.9c0.6,0.6,1,1.3,1.6,1.9c-0.4,2.2-2.1,3.3-3.5,4.7   c-45.6,45.7-91.3,91.4-137,137c-4.6,4.6-9.8,8.5-14.3,13.2c-1.2,1.2-2.6,2.1-4.3,2.4c-27.3,0.3-54.6,0-81.9,0.2   c-2.3,0-4.7-0.7-6.6,1.4c-0.9,1.3-0.9,2.8-0.9,4.3c0,9.6,0,19.1,0,28.7c0,1.5,0,3,0.8,4.3c1.6,2.1,4,1.4,6,1.4   c12.9,0.2,25.8-0.3,38.8,0.2c3.3,1,2,2.9,0.6,4.4c-3.2,3.6-6.5,7.2-10.3,10.2c-4.1,3.4-7.9,7.1-11.7,10.9   c-45.6,45.6-91.1,91.2-136.8,136.7c-2,2-3.6,5.7-7.8,3.9c-10.9-11.8-23.4-21.3-38.2-27.6c-4.2-1.8-4.3-3.8-0.3-6.2   c6-3.7,11.9-7.3,17.3-11.8c18.2-15.1,26.2-35.2,28.3-58.1c0.9-9.6,0.8-19.3-0.5-28.9c-5.6-40.7-28.1-67.7-66.6-81.7   c-16.3-5.9-33.3-8.9-50.5-9c-67.2-0.3-134.3-0.1-201.5-0.1c-7.8,0-7.9,0.1-7.9,7.7c0,133.8,0,267.6,0,401.5c0,7.7,0.1,7.8,7.8,7.8   c36,0,72,0,108,0c2.7,0,5.3-0.2,8,0.4c2.4,0.7,2.2,2.1,1,3.7c-1.1,1.5-2.5,2.7-3.7,4c-26.5,26.5-52.7,53.4-79.6,79.4   c-17.9,17.2-35.2,34.9-53,52.3C192.7,890.4,191.7,891.8,189.9,892z" fill="#0193F3"/><path d="M527.2,556.1c8-7.9,16.1-15.8,24.1-23.8c41.1-41,82.2-82.1,123.3-123.1c6.1-6.1,12.7-11.7,18.4-18.2   c2.8-2.1,6-1.5,9.1-1.5c33.6,0,67.3,0,100.9,0c2.5,0,5,0.1,7.5-0.3c2.8-0.6,2.2-2.9,2.2-4.8c0-9.5,0-19,0-28.5c0-2-0.6-4.5,1.3-5.6   c2.2-1.2,4,1,5.6,2.3c18.7,15.3,37.4,30.5,56,45.8c49.2,40.3,98.3,80.6,147.4,120.8c4.8,3.9,10.7,6.8,13.7,12.8   c0.1,12.2,0.9,24.4,0,36.5c-1.4,18.9-3.4,37.7-6.6,56.4c-4.6,27-11.3,53.5-20.3,79.4c-10.2,29.3-23.3,57.2-38.6,84.2   c-11.8,20.8-25.5,40.3-39.9,59.3c-8,10.6-16.7,20.7-26,30.2c-9.2,9.5-18.1,19.2-28,28.1c-15.5,14.1-31.7,27.3-48.7,39.6   c-24.9,18-51.5,33.3-79.4,46.2c-28.8,13.3-58.6,23.8-89.5,31.3c-19,4.6-38.1,8.1-57.4,10.7c-9.1,1.2-18.3,1.7-27.5,2.4   c-19.6,1.6-39.2,0.2-58.8,0.8c-1.4,0-3,0.5-4.2-0.9c-4.5-3.7-6.8-9-9.8-13.8c-30.4-48.6-60.9-97.1-91.4-145.6   c-24.4-38.9-48.7-78-73.4-116.8c-1.1-1.7-2.2-3.4-3.1-5.2c-0.7-1.5-1.8-3,0.1-4.4c2.2-1,4.6-0.7,6.9-0.7c20.7,0,41.3,0.3,62-0.1   c17.2-0.3,34.2-2.2,51-6.1c32-7.4,56.7-25,73.6-53.1c21.8-36.4,24.4-74.6,9.4-114.1c-2.6-6.8-7.3-12.3-10.6-18.6   C526.6,557,526.7,556.5,527.2,556.1z" fill="#044E7E"/><path d="M334,751.1c6.4,12,14.2,23.2,21.4,34.8c25.8,41.5,51.8,82.9,77.8,124.3c18.8,30,37.7,59.9,56.5,89.9   c7.5,12,14.9,24,22.3,36c-70.6-3.6-137.2-22.2-199.9-54.5C268.3,959,229,930.3,193.7,896c-1.3-1.3-2.5-2.6-3.7-4   c17.2-17.6,34.2-35.3,52.3-51.9c1.1-1,2.1-2.1,3.2-3.1c27.3-27.3,54.6-54.5,81.9-81.8c1.3-1.3,2.5-2.7,3.7-4   c0.4-0.7,1.1-0.9,1.8-0.8C333.3,750.5,333.7,750.7,334,751.1z" fill="#0472B9"/><path d="M1036.8,532c-74-60.6-147.9-121.1-222.9-182.5c0,12.5,0,23.5,0,34.6c0,1.9,0.6,4-0.7,5.8   c-2.3-1.9-1.8-4.5-1.8-7c-0.1-9,0-18-0.1-27c0-5.9-0.4-6.3-6.3-6.3c-20-0.1-40,0-60-0.1c-2.7,0-5.7,0.6-8-1.7   c4.4-5.7,10.3-9.9,15.3-14.9c45.7-45.6,91.4-91.3,137.1-137c1.4-1.4,2.9-2.7,4.4-4c22.5,22.2,42.1,46.7,59.6,72.9   c33.7,50.3,57.3,105,70.9,163.9c6.1,26.6,10.2,53.5,11.5,80.7C1036.5,517,1037.2,524.5,1036.8,532z" fill="#0472B9"/><path d="M333,750.8c-0.7,0.1-1.3,0.2-2,0.3c-29.5-0.1-59-0.1-88.5-0.2c-11.5,0-23-0.1-34.5,0.1   c-3.3,0.1-4.6-0.9-4.1-4.2c0.1-0.7,0-1.3,0-2c0-136,0-271.9-0.1-407.9c0-5.1,1.3-6.2,6.2-6.1c67.5,0.2,135-0.1,202.4,0.2   c23.7,0.1,46.7,4.5,68,15.4c30.3,15.5,47.5,40.6,52.5,74.2c2.6,17.3,1.9,34.5-2.7,51.4c-6.2,22.5-20.2,38.5-40.3,49.8   c-1.9,1.1-3.7,2.1-5.6,3.2c-0.1,0.1-0.2,0.3-0.4,0.7c17.1,6.3,31.5,16.3,43.1,30.3c0,0.2-0.1,0.5,0,0.8c0.6,2-0.9,3.1-2,4.2   c-20.6,20.6-41.2,41.3-61.9,61.8c-1.3,1.3-3.2,4.4-5.3,0.4c-0.9-6.1-0.4-12.3-1.8-18.4c-3.6-16.4-13.7-26.6-29.2-32   c-11-3.9-22.5-5-33.9-5.2c-27.8-0.3-55.6-0.1-83.5-0.1c-6.8,0-7,0.3-7,7c0,31.7,0,63.3,0,95c0,6.6,0.3,6.9,7.1,6.9   c27.3,0,54.6,0,82,0.1c4.2,0,8.2-1.3,12.4-0.6c2.2,0.6,2.5,1.9,1.2,3.7c-1.1,1.5-2.4,2.7-3.7,4c-20.9,20.9-41.8,41.8-62.7,62.7   C337.1,748.1,335.4,750,333,750.8z" fill="#FEFEFE"/><path d="M737.1,347.8c23.3,0.1,46.5,0.3,69.8,0.1c5.4-0.1,6.5,1.6,6.3,6.6c-0.3,11.8,0,23.6,0,35.4   c-1.6,1.3-3.5,0.7-5.3,0.7c-36,0-72,0-108,0c-2.3,0-4.7,0.2-7,0.3c-14.5-0.1-29-0.1-43.5-0.3c-1.7,0-3.6,0.7-5.2-0.7   c1.9-1.8,4.3-1.4,6.6-1.4c12.8-0.1,25.6,0,38.5,0c3.3,0,6.2-0.7,8.6-3.1c11.5-11.5,23-23.1,35-35c-13.2,0-25.8,0-38.3,0   c-14.5,0-29,0-43.4,0c-2.5,0-5,0.4-7.1-1.5c1.3-1.9,3.3-0.9,5-0.9C678.4,347.9,707.8,347.9,737.1,347.8z" fill="#DCDCDC"/><path d="M644.1,349c30.3,0,60.6,0,90.9,0c0.5,2.1-1.2,2.7-2.1,3.6c-11.4,11.5-22.9,22.8-34.2,34.3   c-2.2,2.2-4.4,3.1-7.5,3.1c-15.6-0.1-31.3,0-46.9,0C643.5,376.3,643.9,362.6,644.1,349z" fill="#FEFEFE"/><path d="M769.2,609.9c-34.8,0-69.7,0.1-104.5-0.1c-3.8,0-5.1,0.7-4.8,4.8c2.9,44.4,30.2,68.1,70.9,69.4   c16.9,0.6,32.8-2.5,46.5-13.2c6.1-4.8,10.9-10.8,14.6-17.5c1.5-2.8,3.3-3.5,6.3-3.5c23.7,0.1,47.3,0.1,71,0.1c5.7,0,5.8,0.1,4.4,6   c-3.3,14.8-10.7,27.4-20,39.1c-25.6,32.3-59.5,48.5-100,52.4c-40.5,3.9-78.3-3.2-113.1-25.3c-30.7-19.5-48.7-47.4-55.7-82.7   c-7.8-39.3-7.7-78.6,5.3-116.7c17.1-50.3,52.9-80.1,104.7-90.5c30.5-6.2,61-4.5,90.7,5.2c44.7,14.6,71.6,46.6,85.5,90.4   c7.5,23.6,7.9,48.1,7.9,72.6c0,9.6,0,9.6-9.7,9.6C835.9,609.9,802.5,609.9,769.2,609.9z" fill="#DCDCDC"/><path d="M333,750.8c22.9-23,45.7-45.9,68.6-68.9c1.5-1.5,3-3.1,4.4-4.7c0.1-0.2,0.3-0.4,0.4-0.6   c2.2-1.4,4.7-1.5,7.2-2c14.1-2.5,26.4-8.1,34.8-20.3c4.8-6.9,7.1-14.6,8.3-22.8c0.3-2.1,0.4-4.3,1.8-6.1c0.2-0.1,0.4-0.3,0.6-0.4   c15.7-15.6,31.5-31.1,47.1-46.8c7-7.1,14.5-13.7,20.9-21.4c10.2,12.3,15.9,26.8,18.6,42.3c6.5,37.7-0.6,72.4-24.1,103.1   c-18.3,23.9-42.7,38-72.1,43.7c-22.7,4.4-45.6,5.3-68.6,5.1c-15.7-0.2-31.3,0.1-47,0.1C333.6,751,333.3,750.9,333,750.8z" fill="#DCDCDC"/><path d="M406,677.2c-33.3,1.5-66.6,0.3-99.8,0.8c-4.2,0.1-5.6-0.7-5.6-5.3c0.2-34,0.2-67.9,0.1-101.9   c0-3.6,0.7-4.8,4.6-4.8c28.6,0.2,57.3,0,85.9,0.2c10.8,0.1,21.6,1.1,32.1,3.8c22.7,6,35.7,22.6,35.9,46c0,3,0.1,6,0.1,9   c0,0-0.4,0-0.4,0c-0.8,2.3-2.5,3.9-4.1,5.5c-12.6,12.6-25.1,25.2-37.7,37.7c-3.3,3.3-6.8,6.4-10.9,8.6L406,677.2z" fill="#0193F3"/><path d="M351.9,496.2c-15.7,0-31.3-0.1-47,0.1c-3.6,0-4.3-1-4.3-4.4c0.2-27.7,0.2-55.3,0-83c0-3.7,0.7-5.1,4.8-5   c26.2,0.2,52.3,0,78.5,0.2c13.2,0.1,26.2,1.5,39,4.9c16.4,4.4,26.2,16.4,27.2,33.4c0.4,6,0.4,12-0.4,17.9   c-2.6,17.2-13.5,26.7-29.3,31.7c-9.8,3.1-19.8,4.3-30,4.2C377.5,496.1,364.7,496.2,351.9,496.2z" fill="#0193F3"/><path d="M729.1,557.3c-21,0-42,0-62.9,0c-2.3,0-4.9,0.6-4.2-3.3c3.7-18.9,10.5-36,26.5-48.1   c14.1-10.6,30.4-12.9,47.3-11.7c16.8,1.2,31.7,7.2,43.5,19.5c11,11.4,15.5,25.6,17,41c0.4,3.9-2.3,2.5-3.8,2.5   c-16.7,0.1-33.3,0.1-50,0.1C738.1,557.3,733.6,557.3,729.1,557.3z" fill="#034E7E"/><path d="M406.1,676.8c17.6-17.3,35.1-34.5,52.7-51.8C456.6,656.6,437.9,675,406.1,676.8z" fill="#0472B9"/></g></svg>